<svg xmlns="http://www.w3.org/2000/svg"><style>:root svg:not(:target){display:none}</style><svg fill="currentColor" id="download-icon" viewBox="0 0 34 34"><path fill-rule="evenodd" clip-rule="evenodd" d="M21.25 13.458h2.253c1.26 0 1.884 1.53.991 2.423l-6.502 6.502a1.41 1.41 0 0 1-1.998 0l-6.502-6.502c-.893-.893-.255-2.423 1.006-2.423h2.252V6.375c0-.78.638-1.417 1.417-1.417h5.667c.779 0 1.416.638 1.416 1.417v7.083ZM8.5 29.042a1.42 1.42 0 0 1-1.417-1.417c0-.78.638-1.417 1.417-1.417h17c.78 0 1.417.638 1.417 1.417a1.42 1.42 0 0 1-1.417 1.417h-17Z"></path></svg><svg fill="currentColor" id="favourites-icon" viewBox="0 0 29 29"><path d="M16.131 24.538a2.412 2.412 0 0 1-3.25-.012l-.133-.121c-6.344-5.74-10.489-9.498-10.332-14.186.073-2.054 1.124-4.024 2.828-5.184 3.19-2.175 7.13-1.16 9.256 1.33 2.126-2.49 6.066-3.517 9.256-1.33 1.703 1.16 2.755 3.13 2.827 5.184.17 4.689-3.987 8.446-10.331 14.21l-.121.109Z"></path></svg><svg fill="currentColor" id="go-up-icon" viewBox="0 0 24 24"><path fill-rule="evenodd" clip-rule="evenodd" d="M4.293 11.293a1 1 0 1 0 1.414 1.414L11 7.414V19a1 1 0 1 0 2 0V7.414l5.293 5.293a1 1 0 0 0 1.414-1.414l-7-7a1 1 0 0 0-1.414 0l-7 7Z"></path></svg><svg fill="currentColor" id="imagestock-icon" viewBox="0 0 29 29"><g clip-path="url(#imagestock-icon_0)"><path d="M9.063 8.156V0h10.874v8.156H9.063Zm10.874 4.531H29V29H0V12.687h9.063v8.157h10.874v-8.157Z"></path></g><defs><clipPath id="imagestock-icon_0"><path d="M0 0h29v29H0z"></path></clipPath></defs></svg><svg fill="currentColor" id="like-icon" viewBox="0 0 34 34"><path d="M18.912 28.768a2.828 2.828 0 0 1-3.81-.014l-.156-.141C7.508 21.883 2.649 17.478 2.833 11.98c.085-2.408 1.318-4.717 3.315-6.077 3.74-2.55 8.359-1.36 10.852 1.558 2.493-2.918 7.111-4.123 10.852-1.558 1.997 1.36 3.23 3.669 3.314 6.077.199 5.497-4.675 9.903-12.112 16.66l-.142.128Z"></path></svg><svg fill="currentColor" id="open-icon" viewBox="0 0 34 33"><path fill-rule="evenodd" clip-rule="evenodd" d="M19.834 4.121c0-.759.634-1.374 1.416-1.374h8.5c.783 0 1.417.615 1.417 1.374v8.243c0 .758-.634 1.373-1.417 1.373-.782 0-1.416-.615-1.416-1.373v-6.87H21.25c-.782 0-1.416-.614-1.416-1.373ZM4.25 19.232c.783 0 1.417.615 1.417 1.374v6.869h7.083c.783 0 1.417.615 1.417 1.373 0 .76-.634 1.374-1.417 1.374h-8.5c-.782 0-1.417-.615-1.417-1.373v-8.243c0-.759.635-1.374 1.417-1.374Z"></path><path fill-rule="evenodd" clip-rule="evenodd" d="M30.752 3.15a1.345 1.345 0 0 1 0 1.943l-9.917 9.616a1.448 1.448 0 0 1-2.004 0 1.344 1.344 0 0 1 0-1.943l9.917-9.616a1.448 1.448 0 0 1 2.004 0ZM15.169 18.261a1.345 1.345 0 0 1 0 1.943L5.252 29.82a1.448 1.448 0 0 1-2.004 0 1.344 1.344 0 0 1 0-1.943l9.917-9.616a1.448 1.448 0 0 1 2.004 0Z"></path></svg></svg>