<svg width="34" height="34" viewBox="0 0 34 34" fill="currentColor" xmlns="http://www.w3.org/2000/svg">
<path fill-rule="evenodd" clip-rule="evenodd" d="M21.2502 13.4584H23.5027C24.7635 13.4584 25.3868 14.9884 24.4943 15.8809L17.9918 22.3834C17.4393 22.9359 16.5468 22.9359 15.9943 22.3834L9.49183 15.8809C8.59933 14.9884 9.23683 13.4584 10.4977 13.4584H12.7502V6.37504C12.7502 5.59587 13.3877 4.95837 14.1668 4.95837H19.8335C20.6127 4.95837 21.2502 5.59587 21.2502 6.37504V13.4584ZM8.50016 29.0417C7.721 29.0417 7.0835 28.4042 7.0835 27.6251C7.0835 26.8459 7.721 26.2084 8.50016 26.2084H25.5002C26.2793 26.2084 26.9168 26.8459 26.9168 27.6251C26.9168 28.4042 26.2793 29.0417 25.5002 29.0417H8.50016Z"/>
</svg>
