<svg width="34" height="33" viewBox="0 0 34 33" fill="currentColor" xmlns="http://www.w3.org/2000/svg">
<path fill-rule="evenodd" clip-rule="evenodd" d="M19.8335 4.12117C19.8335 3.36248 20.4678 2.74744 21.2502 2.74744H29.7502C30.5326 2.74744 31.1668 3.36248 31.1668 4.12117V12.3636C31.1668 13.1223 30.5326 13.7373 29.7502 13.7373C28.9678 13.7373 28.3335 13.1223 28.3335 12.3636V5.49491H21.2502C20.4678 5.49491 19.8335 4.87987 19.8335 4.12117Z"/>
<path fill-rule="evenodd" clip-rule="evenodd" d="M4.25016 19.2323C5.03257 19.2323 5.66683 19.8473 5.66683 20.606V27.4747H12.7502C13.5326 27.4747 14.1668 28.0898 14.1668 28.8485C14.1668 29.6072 13.5326 30.2222 12.7502 30.2222H4.25016C3.46776 30.2222 2.8335 29.6072 2.8335 28.8485V20.606C2.8335 19.8473 3.46776 19.2323 4.25016 19.2323Z"/>
<path fill-rule="evenodd" clip-rule="evenodd" d="M30.7516 3.14979C31.3048 3.68627 31.3048 4.55608 30.7516 5.09255L20.8349 14.7087C20.2817 15.2452 19.3847 15.2452 18.8314 14.7087C18.2782 14.1722 18.2782 13.3024 18.8314 12.766L28.7481 3.14979C29.3013 2.61332 30.1983 2.61332 30.7516 3.14979Z"/>
<path fill-rule="evenodd" clip-rule="evenodd" d="M15.1686 18.261C15.7218 18.7975 15.7218 19.6673 15.1686 20.2038L5.2519 29.8199C4.69865 30.3564 3.80167 30.3564 3.24843 29.8199C2.69519 29.2834 2.69519 28.4136 3.24843 27.8772L13.1651 18.261C13.7183 17.7245 14.6153 17.7245 15.1686 18.261Z"/>
</svg>
